<mxfile host="app.diagrams.net" modified="2022-06-05T17:46:41.454Z" agent="5.0 (Windows)" etag="JwhKjN7o_OcerfsHzUjn" version="19.0.0" type="github">
  <diagram id="FexJEr39XP1glqWhuldr" name="Page-1">
    <mxGraphModel dx="1585" dy="392" grid="1" gridSize="10" guides="1" tooltips="1" connect="1" arrows="1" fold="1" page="1" pageScale="1" pageWidth="827" pageHeight="1169" math="0" shadow="0">
      <root>
        <mxCell id="0" />
        <mxCell id="1" parent="0" />
        <mxCell id="5w1mZHBbKufEp1BNDujB-1" value="img_IR" style="swimlane;fontStyle=1;align=center;verticalAlign=top;childLayout=stackLayout;horizontal=1;startSize=26;horizontalStack=0;resizeParent=1;resizeParentMax=0;resizeLast=0;collapsible=1;marginBottom=0;" vertex="1" parent="1">
          <mxGeometry x="-250" y="210" width="160" height="134" as="geometry" />
        </mxCell>
        <mxCell id="5w1mZHBbKufEp1BNDujB-2" value="- Iformat_behaviour&#xa;- path&#xa;-crs&#xa;-resolution&#xa;- satellite&#xa;&#xa;" style="text;strokeColor=none;fillColor=none;align=left;verticalAlign=top;spacingLeft=4;spacingRight=4;overflow=hidden;rotatable=0;points=[[0,0.5],[1,0.5]];portConstraint=eastwest;" vertex="1" parent="5w1mZHBbKufEp1BNDujB-1">
          <mxGeometry y="26" width="160" height="74" as="geometry" />
        </mxCell>
        <mxCell id="5w1mZHBbKufEp1BNDujB-3" value="" style="line;strokeWidth=1;fillColor=none;align=left;verticalAlign=middle;spacingTop=-1;spacingLeft=3;spacingRight=3;rotatable=0;labelPosition=right;points=[];portConstraint=eastwest;" vertex="1" parent="5w1mZHBbKufEp1BNDujB-1">
          <mxGeometry y="100" width="160" height="8" as="geometry" />
        </mxCell>
        <mxCell id="5w1mZHBbKufEp1BNDujB-4" value="- project()" style="text;strokeColor=none;fillColor=none;align=left;verticalAlign=top;spacingLeft=4;spacingRight=4;overflow=hidden;rotatable=0;points=[[0,0.5],[1,0.5]];portConstraint=eastwest;" vertex="1" parent="5w1mZHBbKufEp1BNDujB-1">
          <mxGeometry y="108" width="160" height="26" as="geometry" />
        </mxCell>
        <mxCell id="5w1mZHBbKufEp1BNDujB-5" value="img_MO" style="swimlane;fontStyle=1;align=center;verticalAlign=top;childLayout=stackLayout;horizontal=1;startSize=26;horizontalStack=0;resizeParent=1;resizeParentMax=0;resizeLast=0;collapsible=1;marginBottom=0;" vertex="1" parent="1">
          <mxGeometry x="-74" y="210" width="160" height="134" as="geometry" />
        </mxCell>
        <mxCell id="5w1mZHBbKufEp1BNDujB-6" value="- Iformat_behaviour&#xa;- path&#xa;-crs&#xa;-resolution&#xa;" style="text;strokeColor=none;fillColor=none;align=left;verticalAlign=top;spacingLeft=4;spacingRight=4;overflow=hidden;rotatable=0;points=[[0,0.5],[1,0.5]];portConstraint=eastwest;" vertex="1" parent="5w1mZHBbKufEp1BNDujB-5">
          <mxGeometry y="26" width="160" height="74" as="geometry" />
        </mxCell>
        <mxCell id="5w1mZHBbKufEp1BNDujB-7" value="" style="line;strokeWidth=1;fillColor=none;align=left;verticalAlign=middle;spacingTop=-1;spacingLeft=3;spacingRight=3;rotatable=0;labelPosition=right;points=[];portConstraint=eastwest;" vertex="1" parent="5w1mZHBbKufEp1BNDujB-5">
          <mxGeometry y="100" width="160" height="8" as="geometry" />
        </mxCell>
        <mxCell id="5w1mZHBbKufEp1BNDujB-8" value="- project()" style="text;strokeColor=none;fillColor=none;align=left;verticalAlign=top;spacingLeft=4;spacingRight=4;overflow=hidden;rotatable=0;points=[[0,0.5],[1,0.5]];portConstraint=eastwest;" vertex="1" parent="5w1mZHBbKufEp1BNDujB-5">
          <mxGeometry y="108" width="160" height="26" as="geometry" />
        </mxCell>
        <mxCell id="5w1mZHBbKufEp1BNDujB-9" value="Image" style="swimlane;fontStyle=1;align=center;verticalAlign=top;childLayout=stackLayout;horizontal=1;startSize=40;horizontalStack=0;resizeParent=1;resizeParentMax=0;resizeLast=0;collapsible=1;marginBottom=0;" vertex="1" parent="1">
          <mxGeometry x="308" y="100" width="160" height="148" as="geometry" />
        </mxCell>
        <mxCell id="5w1mZHBbKufEp1BNDujB-10" value="- Iformat_behaviour&#xa;- path&#xa;- crs&#xa;- resolution&#xa;- canal&#xa;&#xa;" style="text;strokeColor=none;fillColor=none;align=left;verticalAlign=top;spacingLeft=4;spacingRight=4;overflow=hidden;rotatable=0;points=[[0,0.5],[1,0.5]];portConstraint=eastwest;" vertex="1" parent="5w1mZHBbKufEp1BNDujB-9">
          <mxGeometry y="40" width="160" height="74" as="geometry" />
        </mxCell>
        <mxCell id="5w1mZHBbKufEp1BNDujB-11" value="" style="line;strokeWidth=1;fillColor=none;align=left;verticalAlign=middle;spacingTop=-1;spacingLeft=3;spacingRight=3;rotatable=0;labelPosition=right;points=[];portConstraint=eastwest;" vertex="1" parent="5w1mZHBbKufEp1BNDujB-9">
          <mxGeometry y="114" width="160" height="8" as="geometry" />
        </mxCell>
        <mxCell id="5w1mZHBbKufEp1BNDujB-12" value="- project()&#xa;" style="text;strokeColor=none;fillColor=none;align=left;verticalAlign=top;spacingLeft=4;spacingRight=4;overflow=hidden;rotatable=0;points=[[0,0.5],[1,0.5]];portConstraint=eastwest;" vertex="1" parent="5w1mZHBbKufEp1BNDujB-9">
          <mxGeometry y="122" width="160" height="26" as="geometry" />
        </mxCell>
        <mxCell id="5w1mZHBbKufEp1BNDujB-13" value="&quot;IformatBehaviour&quot;" style="swimlane;fontStyle=1;align=center;verticalAlign=top;childLayout=stackLayout;horizontal=1;startSize=40;horizontalStack=0;resizeParent=1;resizeParentMax=0;resizeLast=0;collapsible=1;marginBottom=0;" vertex="1" parent="1">
          <mxGeometry x="540" y="130" width="130" height="80" as="geometry" />
        </mxCell>
        <mxCell id="5w1mZHBbKufEp1BNDujB-14" value="+ project()&#xa;+ getCRS()&#xa;" style="text;strokeColor=none;fillColor=none;align=left;verticalAlign=top;spacingLeft=4;spacingRight=4;overflow=hidden;rotatable=0;points=[[0,0.5],[1,0.5]];portConstraint=eastwest;" vertex="1" parent="5w1mZHBbKufEp1BNDujB-13">
          <mxGeometry y="40" width="130" height="40" as="geometry" />
        </mxCell>
        <mxCell id="5w1mZHBbKufEp1BNDujB-17" value="FormatnetCDF" style="swimlane;fontStyle=1;align=center;verticalAlign=top;childLayout=stackLayout;horizontal=1;startSize=30;horizontalStack=0;resizeParent=1;resizeParentMax=0;resizeLast=0;collapsible=1;marginBottom=0;" vertex="1" parent="1">
          <mxGeometry x="750" y="80" width="130" height="70" as="geometry" />
        </mxCell>
        <mxCell id="5w1mZHBbKufEp1BNDujB-18" value="+ project()&#xa;+ getCRS()&#xa;" style="text;strokeColor=none;fillColor=none;align=left;verticalAlign=top;spacingLeft=4;spacingRight=4;overflow=hidden;rotatable=0;points=[[0,0.5],[1,0.5]];portConstraint=eastwest;" vertex="1" parent="5w1mZHBbKufEp1BNDujB-17">
          <mxGeometry y="30" width="130" height="40" as="geometry" />
        </mxCell>
        <mxCell id="5w1mZHBbKufEp1BNDujB-21" value="Formatnat" style="swimlane;fontStyle=1;align=center;verticalAlign=top;childLayout=stackLayout;horizontal=1;startSize=30;horizontalStack=0;resizeParent=1;resizeParentMax=0;resizeLast=0;collapsible=1;marginBottom=0;" vertex="1" parent="1">
          <mxGeometry x="750" y="190" width="130" height="70" as="geometry" />
        </mxCell>
        <mxCell id="5w1mZHBbKufEp1BNDujB-22" value="+ project()&#xa;+ getCRS()&#xa;" style="text;strokeColor=none;fillColor=none;align=left;verticalAlign=top;spacingLeft=4;spacingRight=4;overflow=hidden;rotatable=0;points=[[0,0.5],[1,0.5]];portConstraint=eastwest;" vertex="1" parent="5w1mZHBbKufEp1BNDujB-21">
          <mxGeometry y="30" width="130" height="40" as="geometry" />
        </mxCell>
        <mxCell id="5w1mZHBbKufEp1BNDujB-23" value="Extends" style="endArrow=block;endSize=16;endFill=0;html=1;rounded=0;entryX=1;entryY=0.25;entryDx=0;entryDy=0;exitX=0;exitY=0.25;exitDx=0;exitDy=0;" edge="1" parent="1" source="5w1mZHBbKufEp1BNDujB-17" target="5w1mZHBbKufEp1BNDujB-13">
          <mxGeometry x="0.2425" width="160" relative="1" as="geometry">
            <mxPoint x="110" y="250" as="sourcePoint" />
            <mxPoint x="270" y="250" as="targetPoint" />
            <Array as="points">
              <mxPoint x="730" y="98" />
              <mxPoint x="730" y="150" />
            </Array>
            <mxPoint as="offset" />
          </mxGeometry>
        </mxCell>
        <mxCell id="5w1mZHBbKufEp1BNDujB-25" value="Extends" style="endArrow=block;endSize=16;endFill=0;html=1;rounded=0;exitX=0;exitY=0.25;exitDx=0;exitDy=0;" edge="1" parent="1" source="5w1mZHBbKufEp1BNDujB-21">
          <mxGeometry x="0.2754" width="160" relative="1" as="geometry">
            <mxPoint x="760" y="107.5" as="sourcePoint" />
            <mxPoint x="670" y="150" as="targetPoint" />
            <Array as="points">
              <mxPoint x="730" y="208" />
              <mxPoint x="730" y="150" />
            </Array>
            <mxPoint as="offset" />
          </mxGeometry>
        </mxCell>
        <mxCell id="5w1mZHBbKufEp1BNDujB-26" style="edgeStyle=orthogonalEdgeStyle;rounded=0;orthogonalLoop=1;jettySize=auto;html=1;exitX=1;exitY=0.5;exitDx=0;exitDy=0;entryX=-0.015;entryY=0.175;entryDx=0;entryDy=0;entryPerimeter=0;" edge="1" parent="1" source="5w1mZHBbKufEp1BNDujB-10" target="5w1mZHBbKufEp1BNDujB-14">
          <mxGeometry relative="1" as="geometry" />
        </mxCell>
        <mxCell id="5w1mZHBbKufEp1BNDujB-27" value="Dataset" style="swimlane;fontStyle=1;align=center;verticalAlign=top;childLayout=stackLayout;horizontal=1;startSize=26;horizontalStack=0;resizeParent=1;resizeParentMax=0;resizeLast=0;collapsible=1;marginBottom=0;" vertex="1" parent="1">
          <mxGeometry x="308" y="320" width="162" height="84" as="geometry" />
        </mxCell>
        <mxCell id="5w1mZHBbKufEp1BNDujB-28" value="&#xa;" style="text;strokeColor=none;fillColor=none;align=left;verticalAlign=top;spacingLeft=4;spacingRight=4;overflow=hidden;rotatable=0;points=[[0,0.5],[1,0.5]];portConstraint=eastwest;" vertex="1" parent="5w1mZHBbKufEp1BNDujB-27">
          <mxGeometry y="26" width="162" height="24" as="geometry" />
        </mxCell>
        <mxCell id="5w1mZHBbKufEp1BNDujB-29" value="" style="line;strokeWidth=1;fillColor=none;align=left;verticalAlign=middle;spacingTop=-1;spacingLeft=3;spacingRight=3;rotatable=0;labelPosition=right;points=[];portConstraint=eastwest;" vertex="1" parent="5w1mZHBbKufEp1BNDujB-27">
          <mxGeometry y="50" width="162" height="8" as="geometry" />
        </mxCell>
        <mxCell id="5w1mZHBbKufEp1BNDujB-30" value="&#xa;" style="text;strokeColor=none;fillColor=none;align=left;verticalAlign=top;spacingLeft=4;spacingRight=4;overflow=hidden;rotatable=0;points=[[0,0.5],[1,0.5]];portConstraint=eastwest;" vertex="1" parent="5w1mZHBbKufEp1BNDujB-27">
          <mxGeometry y="58" width="162" height="26" as="geometry" />
        </mxCell>
        <mxCell id="5w1mZHBbKufEp1BNDujB-31" value="1" style="endArrow=open;html=1;endSize=12;startArrow=diamondThin;startSize=14;startFill=0;edgeStyle=orthogonalEdgeStyle;align=left;verticalAlign=bottom;rounded=0;entryX=0.5;entryY=0;entryDx=0;entryDy=0;" edge="1" parent="1" target="5w1mZHBbKufEp1BNDujB-27">
          <mxGeometry x="-0.1429" y="1" relative="1" as="geometry">
            <mxPoint x="389" y="250" as="sourcePoint" />
            <mxPoint x="390" y="470" as="targetPoint" />
            <mxPoint as="offset" />
          </mxGeometry>
        </mxCell>
      </root>
    </mxGraphModel>
  </diagram>
</mxfile>
